<?xml version="1.0" encoding="UTF-8" standalone="no"?>
<!DOCTYPE svg PUBLIC "-//W3C//DTD SVG 1.1//EN"
 "http://www.w3.org/Graphics/SVG/1.1/DTD/svg11.dtd">
<!-- Generated by graphviz version 2.40.1 (20161225.0304)
 -->
<!-- Title: foo Pages: 1 -->
<svg width="558pt" height="507pt"
 viewBox="0.00 0.00 558.11 507.00" xmlns="http://www.w3.org/2000/svg" xmlns:xlink="http://www.w3.org/1999/xlink">
<g id="graph0" class="graph" transform="scale(1 1) rotate(0) translate(4 503)">
<title>foo</title>
<polygon fill="#ffffff" stroke="transparent" points="-4,4 -4,-503 554.1086,-503 554.1086,4 -4,4"/>
<!-- a -->
<g id="node1" class="node">
<title>a</title>
<polygon fill="#c0c0c0" stroke="#000000" points="314.1086,-499 182.1086,-499 182.1086,-461 314.1086,-461 314.1086,-499"/>
<text text-anchor="middle" x="248.1086" y="-483.8" font-family="Times,serif" font-size="14.00" fill="#000000">10k PBMC dataset</text>
<text text-anchor="middle" x="248.1086" y="-468.8" font-family="Times,serif" font-size="14.00" fill="#000000">from 10X Genomics</text>
</g>
<!-- b -->
<g id="node2" class="node">
<title>b</title>
<polygon fill="#c0c0c0" stroke="#000000" points="302.1086,-410 194.1086,-410 194.1086,-357 302.1086,-357 302.1086,-410"/>
<text text-anchor="middle" x="248.1086" y="-394.8" font-family="Times,serif" font-size="14.00" fill="#000000">10k PBMC with</text>
<text text-anchor="middle" x="248.1086" y="-379.8" font-family="Times,serif" font-size="14.00" fill="#000000">ambient RNA</text>
<text text-anchor="middle" x="248.1086" y="-364.8" font-family="Times,serif" font-size="14.00" fill="#000000">removed</text>
</g>
<!-- a&#45;&gt;b -->
<g id="edge1" class="edge">
<title>a&#45;&gt;b</title>
<g id="a_edge1"><a xlink:href="https://github.com/cellgeni/notebooks/blob/master/notebooks/new-10kPBMC-SoupX.Rmd" xlink:title=" soupX (R) " target="_blank">
<path fill="none" stroke="#000000" d="M248.1086,-460.9347C248.1086,-449.3793 248.1086,-434.2466 248.1086,-420.4272"/>
<polygon fill="#000000" stroke="#000000" points="251.6087,-420.1964 248.1086,-410.1965 244.6087,-420.1965 251.6087,-420.1964"/>
</a>
</g>
<g id="a_edge1&#45;label"><a xlink:href="https://github.com/cellgeni/notebooks/blob/master/notebooks/new-10kPBMC-SoupX.Rmd" xlink:title=" soupX (R) " target="_blank">
<text text-anchor="middle" x="281.1086" y="-431.8" font-family="Times,serif" font-size="14.00" fill="#000000"> soupX (R) </text>
</a>
</g>
</g>
<!-- c -->
<g id="node3" class="node">
<title>c</title>
<polygon fill="#c0c0c0" stroke="#000000" points="305.1086,-306 191.1086,-306 191.1086,-268 305.1086,-268 305.1086,-306"/>
<text text-anchor="middle" x="248.1086" y="-290.8" font-family="Times,serif" font-size="14.00" fill="#000000">10k PBMC</text>
<text text-anchor="middle" x="248.1086" y="-275.8" font-family="Times,serif" font-size="14.00" fill="#000000">detected doublets</text>
</g>
<!-- b&#45;&gt;c -->
<g id="edge2" class="edge">
<title>b&#45;&gt;c</title>
<g id="a_edge2"><a xlink:href="https://github.com/cellgeni/notebooks/blob/master/notebooks/new-doublets-scrublet.ipynb" xlink:title=" scrublet (Python) " target="_blank">
<path fill="none" stroke="#000000" d="M248.1086,-356.8755C248.1086,-344.3232 248.1086,-329.3089 248.1086,-316.4206"/>
<polygon fill="#000000" stroke="#000000" points="251.6087,-316.1951 248.1086,-306.1951 244.6087,-316.1951 251.6087,-316.1951"/>
</a>
</g>
<g id="a_edge2&#45;label"><a xlink:href="https://github.com/cellgeni/notebooks/blob/master/notebooks/new-doublets-scrublet.ipynb" xlink:title=" scrublet (Python) " target="_blank">
<text text-anchor="middle" x="300.1086" y="-327.8" font-family="Times,serif" font-size="14.00" fill="#000000"> scrublet (Python) </text>
</a>
</g>
</g>
<!-- d -->
<g id="node4" class="node">
<title>d</title>
<polygon fill="#ffa500" stroke="#000000" points="240.1086,-217 108.1086,-217 108.1086,-119 240.1086,-119 240.1086,-217"/>
<text text-anchor="middle" x="174.1086" y="-201.8" font-family="Times,serif" font-size="14.00" fill="#000000">10k PBMC</text>
<text text-anchor="middle" x="174.1086" y="-186.8" font-family="Times,serif" font-size="14.00" fill="#000000">&#45;QC and filtering</text>
<text text-anchor="middle" x="174.1086" y="-171.8" font-family="Times,serif" font-size="14.00" fill="#000000">&#45;clustering</text>
<text text-anchor="middle" x="174.1086" y="-156.8" font-family="Times,serif" font-size="14.00" fill="#000000">&#45;UMAP/TSNE</text>
<text text-anchor="middle" x="174.1086" y="-141.8" font-family="Times,serif" font-size="14.00" fill="#000000">&#45;marker selection</text>
<text text-anchor="middle" x="174.1086" y="-126.8" font-family="Times,serif" font-size="14.00" fill="#000000">&#45;cell type annotation</text>
</g>
<!-- c&#45;&gt;d -->
<g id="edge3" class="edge">
<title>c&#45;&gt;d</title>
<g id="a_edge3"><a xlink:href="https://github.com/cellgeni/notebooks/blob/master/notebooks/new-10kPBMC-Seurat.Rmd" target="_blank">
<path fill="none" stroke="#000000" d="M236.2192,-267.8806C229.0813,-256.402 219.5826,-241.1271 210.1655,-225.9833"/>
<polygon fill="#000000" stroke="#000000" points="212.9016,-223.7555 204.6487,-217.1117 206.9572,-227.452 212.9016,-223.7555"/>
</a>
</g>
<g id="a_edge3&#45;label"><a xlink:href="https://github.com/cellgeni/notebooks/blob/master/notebooks/new-10kPBMC-Seurat.Rmd" target="_blank">
<text text-anchor="middle" x="131.4511" y="-246.3238" font-family="Times,serif" font-size="14.00" fill="#000000"> Seurat (R) full basic workflow </text>
</a>
</g>
</g>
<!-- f -->
<g id="node6" class="node">
<title>f</title>
<polygon fill="#ffa500" stroke="#000000" points="411.1086,-217 279.1086,-217 279.1086,-119 411.1086,-119 411.1086,-217"/>
<text text-anchor="middle" x="345.1086" y="-201.8" font-family="Times,serif" font-size="14.00" fill="#000000">10k PBMC</text>
<text text-anchor="middle" x="345.1086" y="-186.8" font-family="Times,serif" font-size="14.00" fill="#000000">&#45;QC and filtering</text>
<text text-anchor="middle" x="345.1086" y="-171.8" font-family="Times,serif" font-size="14.00" fill="#000000">&#45;clustering</text>
<text text-anchor="middle" x="345.1086" y="-156.8" font-family="Times,serif" font-size="14.00" fill="#000000">&#45;UMAP/TSNE</text>
<text text-anchor="middle" x="345.1086" y="-141.8" font-family="Times,serif" font-size="14.00" fill="#000000">&#45;marker selection</text>
<text text-anchor="middle" x="345.1086" y="-126.8" font-family="Times,serif" font-size="14.00" fill="#000000">&#45;cell type annotation</text>
</g>
<!-- c&#45;&gt;f -->
<g id="edge5" class="edge">
<title>c&#45;&gt;f</title>
<path fill="none" stroke="#000000" d="M263.6933,-267.8806C273.2247,-256.1875 285.9673,-240.5548 298.5369,-225.1343"/>
<polygon fill="#000000" stroke="#000000" points="301.471,-227.0743 305.0763,-217.1117 296.0452,-222.6515 301.471,-227.0743"/>
<text text-anchor="middle" x="393.6086" y="-238.8" font-family="Times,serif" font-size="14.00" fill="#000000"> scanpy (Python) full basic workflow </text>
</g>
<!-- e -->
<g id="node5" class="node">
<title>e</title>
<polygon fill="#00ffff" stroke="#000000" points="250.6086,-68 75.6086,-68 75.6086,0 250.6086,0 250.6086,-68"/>
<text text-anchor="middle" x="163.1086" y="-52.8" font-family="Times,serif" font-size="14.00" fill="#000000">10k PBMC</text>
<text text-anchor="middle" x="163.1086" y="-37.8" font-family="Times,serif" font-size="14.00" fill="#000000">&#45;multiple integrated datasets</text>
<text text-anchor="middle" x="163.1086" y="-22.8" font-family="Times,serif" font-size="14.00" fill="#000000">&#45;unified clustering</text>
<text text-anchor="middle" x="163.1086" y="-7.8" font-family="Times,serif" font-size="14.00" fill="#000000">&#45;marker selection</text>
</g>
<!-- d&#45;&gt;e -->
<g id="edge4" class="edge">
<title>d&#45;&gt;e</title>
<path fill="none" stroke="#000000" d="M170.0751,-118.8642C168.9816,-105.5441 167.8048,-91.2078 166.7352,-78.179"/>
<polygon fill="#000000" stroke="#000000" points="170.2106,-77.7349 165.9041,-68.0548 163.2341,-78.3077 170.2106,-77.7349"/>
<text text-anchor="middle" x="84" y="-97.3862" font-family="Times,serif" font-size="14.00" fill="#000000"> R&#45;based integration methods </text>
</g>
<!-- g -->
<g id="node7" class="node">
<title>g</title>
<polygon fill="#00ffff" stroke="#000000" points="443.6086,-68 268.6086,-68 268.6086,0 443.6086,0 443.6086,-68"/>
<text text-anchor="middle" x="356.1086" y="-52.8" font-family="Times,serif" font-size="14.00" fill="#000000">10k PBMC</text>
<text text-anchor="middle" x="356.1086" y="-37.8" font-family="Times,serif" font-size="14.00" fill="#000000">&#45;multiple integrated datasets</text>
<text text-anchor="middle" x="356.1086" y="-22.8" font-family="Times,serif" font-size="14.00" fill="#000000">&#45;unified clustering</text>
<text text-anchor="middle" x="356.1086" y="-7.8" font-family="Times,serif" font-size="14.00" fill="#000000">&#45;marker selection</text>
</g>
<!-- f&#45;&gt;g -->
<g id="edge6" class="edge">
<title>f&#45;&gt;g</title>
<path fill="none" stroke="#000000" d="M349.1421,-118.8642C350.2356,-105.5441 351.4124,-91.2078 352.482,-78.179"/>
<polygon fill="#000000" stroke="#000000" points="355.9831,-78.3077 353.313,-68.0548 349.0065,-77.7349 355.9831,-78.3077"/>
<text text-anchor="middle" x="450.6086" y="-89.8" font-family="Times,serif" font-size="14.00" fill="#000000"> Python&#45;based integration methods </text>
</g>
</g>
</svg>
